<?xml version="1.0" encoding="utf-8"?>
<svg width="240.10938px" height="88px" viewBox="0 0 240.10938 88" version="1.1" xmlns:xlink="http://www.w3.org/1999/xlink" xmlns="http://www.w3.org/2000/svg">
  <defs>
    <filter filterUnits="userSpaceOnUse" color-interpolation-filters="sRGB" id="filter_1">
      <feFlood flood-opacity="0" result="BackgroundImageFix" />
      <feColorMatrix in="SourceAlpha" type="matrix" values="0 0 0 0 0 0 0 0 0 0 0 0 0 0 0 0 0 0 127 0" />
      <feOffset dx="10" dy="10" />
      <feGaussianBlur stdDeviation="5" />
      <feColorMatrix type="matrix" values="0 0 0 0 0 0 0 0 0 0 0 0 0 0 0 0 0 0 1 0" />
      <feBlend mode="normal" in2="BackgroundImageFix" result="effect0_dropShadow" />
      <feBlend mode="normal" in="SourceGraphic" in2="effect0_dropShadow" result="shape" />
    </filter>
  </defs>
  <g id="Syllabus" fill="#FFFFFF" filter="url(#filter_1)" transform="translate(5 5)">
    <path d="M69.5917 42.294Q69.5917 43.49 68.7867 44.295Q67.9817 45.1 66.7857 45.1Q65.6357 45.1 64.8537 44.295Q64.0717 43.49 64.0717 42.294L64.0717 13.866Q64.0717 12.67 64.8767 11.865Q65.6817 11.06 66.8777 11.06Q68.0737 11.06 68.8327 11.865Q69.5917 12.67 69.5917 13.866L69.5917 42.294ZM84.2067 44.295Q85.0117 43.49 85.0117 42.294L85.0117 13.866Q85.0117 12.67 84.2527 11.865Q83.4937 11.06 82.2977 11.06Q81.1017 11.06 80.2967 11.865Q79.4917 12.67 79.4917 13.866L79.4917 42.294Q79.4917 43.49 80.2737 44.295Q81.0557 45.1 82.2057 45.1Q83.4017 45.1 84.2067 44.295ZM144.625 21.663Q142.072 20.03 138.852 20.03Q137.242 20.03 135.793 20.582Q134.344 21.134 133.24 21.985Q132.25 22.7481 131.63 23.5111L131.63 13.866Q131.63 12.67 130.848 11.865Q130.066 11.06 128.87 11.06Q127.674 11.06 126.892 11.865Q126.11 12.67 126.11 13.866L126.11 42.754Q126.11 43.996 126.892 44.778Q127.674 45.56 128.87 45.56Q130.066 45.56 130.848 44.755Q131.63 43.95 131.63 42.754L131.63 42.4725Q132.117 42.9614 132.757 43.444Q133.976 44.364 135.586 44.962Q137.196 45.56 139.036 45.56Q142.164 45.56 144.671 43.927Q147.178 42.294 148.673 39.419Q150.168 36.544 150.168 32.772Q150.168 29 148.673 26.148Q147.178 23.296 144.625 21.663ZM8.16168 44.755Q10.7377 45.56 13.9577 45.56Q17.0857 45.56 19.7767 44.41Q22.4677 43.26 24.1237 41.098Q25.7797 38.936 25.7797 35.946Q25.7797 33.6 25.0897 31.967Q24.3997 30.334 23.0197 29.253Q21.6397 28.172 19.5467 27.482Q17.4537 26.792 14.6937 26.286Q12.5777 25.872 11.0597 25.343Q9.54168 24.814 8.73668 23.917Q7.93168 23.02 7.93168 21.64Q7.93168 20.49 8.62169 19.616Q9.31168 18.742 10.6687 18.236Q12.0257 17.73 14.0037 17.73Q15.1997 17.73 16.5797 18.121Q17.9597 18.512 19.2017 19.087Q20.4437 19.662 21.1797 20.306Q21.7317 20.72 22.4217 20.72Q23.4797 20.72 24.2617 19.892Q25.0437 19.064 25.0437 18.052Q25.0437 16.672 23.7097 15.614Q22.0997 14.234 19.5467 13.337Q16.9937 12.44 14.0037 12.44Q10.8297 12.44 8.20768 13.544Q5.58568 14.648 4.04468 16.764Q2.50368 18.88 2.50368 21.87Q2.50368 23.848 3.14768 25.435Q3.79168 27.022 5.05668 28.195Q6.32168 29.368 8.20768 30.127Q10.0937 30.886 12.5777 31.254Q15.1997 31.622 16.9017 32.289Q18.6037 32.956 19.4317 33.922Q20.2597 34.888 20.2597 36.268Q20.2597 37.418 19.3857 38.315Q18.5117 39.212 17.0857 39.741Q15.6597 40.27 13.9577 40.27Q11.4277 40.27 9.70268 39.534Q7.97768 38.798 6.22968 37.372Q5.53968 36.82 4.66568 36.82Q3.51568 36.82 2.75668 37.625Q1.99768 38.43 1.99768 39.488Q1.99768 40.132 2.31968 40.776Q2.64168 41.42 3.23968 41.926Q5.58568 43.95 8.16168 44.755ZM114.37 20.03Q115.566 20.03 116.348 20.812Q117.13 21.594 117.13 22.836L117.13 42.294Q117.13 43.49 116.348 44.295Q115.566 45.1 114.37 45.1Q113.174 45.1 112.392 44.295Q111.627 43.5075 111.61 42.3458Q111.045 42.9702 110.23 43.582Q109.126 44.41 107.631 44.985Q106.136 45.56 104.388 45.56Q101.214 45.56 98.6377 43.927Q96.0617 42.294 94.5667 39.419Q93.0717 36.544 93.0717 32.818Q93.0717 29.046 94.5667 26.171Q96.0617 23.296 98.5917 21.663Q101.122 20.03 104.204 20.03Q106.182 20.03 107.838 20.628Q109.494 21.226 110.713 22.146Q111.206 22.5187 111.61 22.8951L111.61 22.836Q111.61 21.64 112.392 20.835Q113.174 20.03 114.37 20.03ZM185.93 39.626Q185.884 40.638 186.344 41.282Q188.138 43.674 190.852 44.617Q193.566 45.56 196.28 45.56Q198.442 45.56 200.512 44.709Q202.582 43.858 203.962 42.202Q205.342 40.546 205.342 38.2Q205.342 36.176 204.606 34.865Q203.87 33.554 202.674 32.726Q201.478 31.898 200.052 31.392Q198.626 30.886 197.246 30.518Q195.912 30.15 194.739 29.759Q193.566 29.368 192.876 28.747Q192.186 28.126 192.186 27.068Q192.186 25.918 192.784 25.389Q193.382 24.86 194.187 24.699Q194.992 24.538 195.682 24.538Q197.384 24.538 198.695 25.136Q200.006 25.734 200.788 26.746Q201.386 27.298 202.306 27.367Q203.226 27.436 203.916 26.884Q204.882 26.102 204.79 25.136Q204.698 24.17 204.192 23.48Q203.226 22.238 201.8 21.479Q200.374 20.72 198.81 20.375Q197.246 20.03 195.82 20.03Q193.566 20.03 191.519 20.904Q189.472 21.778 188.184 23.388Q186.896 24.998 186.896 27.298Q186.896 29.322 187.678 30.656Q188.46 31.99 189.702 32.795Q190.944 33.6 192.439 34.106Q193.934 34.612 195.36 35.026Q196.74 35.394 197.867 35.808Q198.994 36.222 199.684 36.82Q200.374 37.418 200.374 38.43Q200.374 39.626 199.753 40.201Q199.132 40.776 198.304 40.937Q197.476 41.098 196.786 41.144Q194.578 41.144 193.106 40.408Q191.634 39.672 190.3 38.338Q189.518 37.556 188.69 37.487Q187.862 37.418 187.126 37.878Q185.976 38.614 185.93 39.626ZM53.8497 21.295Q53.0677 20.49 51.8717 20.49Q50.6757 20.49 49.8937 21.295Q49.1117 22.1 49.1117 23.296L49.1117 35.072Q49.1117 36.82 48.5137 38.039Q47.9157 39.258 46.8117 39.879Q45.7077 40.5 44.0977 40.5Q41.7517 40.5 40.4407 39.281Q39.1297 38.062 39.1297 35.072L39.1297 23.296Q39.1297 22.1 38.3477 21.295Q37.5657 20.49 36.3697 20.49Q35.1737 20.49 34.3917 21.295Q33.6097 22.1 33.6097 23.296L33.6097 36.728Q33.6097 39.304 34.6217 41.305Q35.6337 43.306 37.4507 44.433Q39.2677 45.56 41.7057 45.56Q43.7757 45.56 45.3857 45.054Q46.9957 44.548 48.1687 43.559Q48.7039 43.1077 49.1577 42.5464L49.1577 43.03Q49.1577 45.376 48.4447 46.733Q47.7317 48.09 46.3287 48.665Q44.9257 49.24 42.8097 49.24Q41.2457 49.24 40.0497 48.757Q38.8537 48.274 38.1177 48.044Q37.1057 47.676 36.1857 48.159Q35.2657 48.642 34.8517 49.976Q34.5297 50.988 35.0587 51.885Q35.5877 52.782 36.9677 53.38Q38.0257 53.84 39.6817 54.07Q41.3377 54.3 42.8097 54.3Q46.1217 54.3 48.7897 53.196Q51.4577 52.092 53.0447 49.585Q54.6317 47.078 54.6317 42.846L54.6317 23.296Q54.6317 22.1 53.8497 21.295ZM176.03 20.49Q177.226 20.49 178.008 21.295Q178.79 22.1 178.79 23.296L178.79 34.98Q178.79 39.856 176.076 42.708Q173.362 45.56 168.256 45.56Q163.15 45.56 160.459 42.708Q157.768 39.856 157.768 34.98L157.768 23.296Q157.768 22.1 158.55 21.295Q159.332 20.49 160.528 20.49Q161.724 20.49 162.506 21.295Q163.288 22.1 163.288 23.296L163.288 34.98Q163.288 37.786 164.53 39.143Q165.772 40.5 168.256 40.5Q170.786 40.5 172.028 39.143Q173.27 37.786 173.27 34.98L173.27 23.296Q173.27 22.1 174.052 21.295Q174.834 20.49 176.03 20.49ZM105.078 40.5Q107.102 40.5 108.62 39.488Q110.138 38.476 110.989 36.728Q111.84 34.98 111.84 32.818Q111.84 30.61 110.989 28.862Q110.138 27.114 108.62 26.102Q107.102 25.09 105.078 25.09Q103.1 25.09 101.582 26.102Q100.064 27.114 99.2127 28.862Q98.3617 30.61 98.3617 32.818Q98.3617 34.98 99.2127 36.728Q100.064 38.476 101.582 39.488Q103.1 40.5 105.078 40.5ZM134.62 26.102Q136.138 25.09 138.162 25.09Q140.186 25.09 141.681 26.102Q143.176 27.114 144.027 28.839Q144.878 30.564 144.878 32.772Q144.878 34.934 144.027 36.705Q143.176 38.476 141.681 39.488Q140.186 40.5 138.162 40.5Q136.138 40.5 134.62 39.488Q133.102 38.476 132.251 36.705Q131.4 34.934 131.4 32.772Q131.4 30.564 132.251 28.839Q133.102 27.114 134.62 26.102Z" />
  </g>
</svg>